<svg xmlns="http://www.w3.org/2000/svg" width="880" height="240" viewBox="0 0 880 240" role="img" aria-label="jsrecon">
  <title>jsrecon</title>
  <style>
    .eye-closed, .claw-closed, .cursor-off { opacity: 0 }
    .eye-open    { animation: blink-o 4.3s step-end infinite }
    .eye-closed  { animation: blink-c 4.3s step-end infinite }
    .claw-open   { animation: on-off 3.2s step-end infinite }
    .claw-closed { animation: off-on 3.2s step-end infinite }
    .cursor      { animation: cur-o 1.1s step-end infinite }
    .cursor-off  { animation: cur-c 1.1s step-end infinite }
    .bob         { animation: bob 1.2s step-end infinite }
    @keyframes blink-o { 0% {opacity:1} 90% {opacity:0} 94% {opacity:1} }
    @keyframes blink-c { 0% {opacity:0} 90% {opacity:1} 94% {opacity:0} }
    @keyframes on-off  { 0% {opacity:1} 60% {opacity:0} 66% {opacity:1} 72% {opacity:0} 78% {opacity:1} }
    @keyframes off-on  { 0% {opacity:0} 60% {opacity:1} 66% {opacity:0} 72% {opacity:1} 78% {opacity:0} }
    @keyframes cur-o   { 0% {opacity:1} 50% {opacity:0} }
    @keyframes cur-c   { 0% {opacity:0} 50% {opacity:1} }
    @keyframes bob     { 0% {transform:translateY(0)} 50% {transform:translateY(-3px)} }
  </style>
  <defs>
    <linearGradient id="word" gradientUnits="userSpaceOnUse" x1="0" y1="0" x2="328" y2="0">
      <stop offset="0" stop-color="#39ff14"/><stop offset="0.5" stop-color="#00e5ff"/><stop offset="1" stop-color="#ff2fd0"/>
    </linearGradient>
    <filter id="glow" x="-10%" y="-30%" width="120%" height="160%">
      <feGaussianBlur stdDeviation="5" result="b"/>
      <feMerge><feMergeNode in="b"/><feMergeNode in="SourceGraphic"/></feMerge>
    </filter>
    <pattern id="grid" width="24" height="24" patternUnits="userSpaceOnUse">
      <path d="M24 0H0V24" fill="none" stroke="#39ff14" stroke-opacity="0.07"/>
    </pattern>
  </defs>
  <rect width="880" height="240" rx="18" fill="#0b0f0c"/>
  <rect width="880" height="240" rx="18" fill="url(#grid)"/>
  <rect x="0.5" y="0.5" width="879" height="239" rx="18" fill="none" stroke="#ff2fd0" stroke-opacity="0.45"/>
  <g transform="translate(50 66)" shape-rendering="crispEdges">
    <g class="bob"><rect x="56" y="0" width="7" height="7" fill="#b7bfff"/><rect x="63" y="0" width="7" height="7" fill="#b7bfff"/><rect x="70" y="0" width="7" height="7" fill="#b7bfff"/><rect x="77" y="0" width="7" height="7" fill="#b7bfff"/><rect x="84" y="0" width="7" height="7" fill="#b7bfff"/><rect x="91" y="0" width="7" height="7" fill="#b7bfff"/><rect x="35" y="7" width="7" height="7" fill="#b7bfff"/><rect x="42" y="7" width="7" height="7" fill="#b7bfff"/><rect x="49" y="7" width="7" height="7" fill="#b7bfff"/><rect x="56" y="7" width="7" height="7" fill="#7f8cff"/><rect x="63" y="7" width="7" height="7" fill="#7f8cff"/><rect x="70" y="7" width="7" height="7" fill="#7f8cff"/><rect x="77" y="7" width="7" height="7" fill="#7f8cff"/><rect x="84" y="7" width="7" height="7" fill="#7f8cff"/><rect x="91" y="7" width="7" height="7" fill="#7f8cff"/><rect x="98" y="7" width="7" height="7" fill="#b7bfff"/><rect x="105" y="7" width="7" height="7" fill="#b7bfff"/><rect x="28" y="14" width="7" height="7" fill="#b7bfff"/><rect x="35" y="14" width="7" height="7" fill="#7f8cff"/><rect x="42" y="14" width="7" height="7" fill="#7f8cff"/><rect x="49" y="14" width="7" height="7" fill="#7f8cff"/><rect x="56" y="14" width="7" height="7" fill="#7f8cff"/><rect x="63" y="14" width="7" height="7" fill="#7f8cff"/><rect x="70" y="14" width="7" height="7" fill="#7f8cff"/><rect x="77" y="14" width="7" height="7" fill="#7f8cff"/><rect x="84" y="14" width="7" height="7" fill="#7f8cff"/><rect x="91" y="14" width="7" height="7" fill="#7f8cff"/><rect x="98" y="14" width="7" height="7" fill="#7f8cff"/><rect x="105" y="14" width="7" height="7" fill="#7f8cff"/><rect x="112" y="14" width="7" height="7" fill="#7f8cff"/><rect x="21" y="21" width="7" height="7" fill="#b7bfff"/><rect x="28" y="21" width="7" height="7" fill="#7f8cff"/><rect x="35" y="21" width="7" height="7" fill="#7f8cff"/><rect x="42" y="21" width="7" height="7" fill="#7f8cff"/><rect x="49" y="21" width="7" height="7" fill="#7f8cff"/><rect x="56" y="21" width="7" height="7" fill="#7f8cff"/><rect x="63" y="21" width="7" height="7" fill="#7f8cff"/><rect x="70" y="21" width="7" height="7" fill="#7f8cff"/><rect x="77" y="21" width="7" height="7" fill="#7f8cff"/><rect x="84" y="21" width="7" height="7" fill="#7f8cff"/><rect x="91" y="21" width="7" height="7" fill="#7f8cff"/><rect x="98" y="21" width="7" height="7" fill="#7f8cff"/><rect x="105" y="21" width="7" height="7" fill="#7f8cff"/><rect x="112" y="21" width="7" height="7" fill="#7f8cff"/><rect x="119" y="21" width="7" height="7" fill="#7f8cff"/><rect x="14" y="28" width="7" height="7" fill="#b7bfff"/><rect x="21" y="28" width="7" height="7" fill="#7f8cff"/><rect x="28" y="28" width="7" height="7" fill="#7f8cff"/><rect x="35" y="28" width="7" height="7" fill="#39ff14"/><rect x="42" y="28" width="7" height="7" fill="#39ff14"/><rect x="49" y="28" width="7" height="7" fill="#7f8cff"/><rect x="56" y="28" width="7" height="7" fill="#7f8cff"/><rect x="63" y="28" width="7" height="7" fill="#7f8cff"/><rect x="70" y="28" width="7" height="7" fill="#7f8cff"/><rect x="77" y="28" width="7" height="7" fill="#7f8cff"/><rect x="84" y="28" width="7" height="7" fill="#7f8cff"/><rect x="91" y="28" width="7" height="7" fill="#7f8cff"/><rect x="98" y="28" width="7" height="7" fill="#7f8cff"/><rect x="105" y="28" width="7" height="7" fill="#39ff14"/><rect x="112" y="28" width="7" height="7" fill="#39ff14"/><rect x="119" y="28" width="7" height="7" fill="#7f8cff"/><rect x="126" y="28" width="7" height="7" fill="#7f8cff"/><rect x="14" y="35" width="7" height="7" fill="#b7bfff"/><rect x="21" y="35" width="7" height="7" fill="#7f8cff"/><rect x="28" y="35" width="7" height="7" fill="#7f8cff"/><rect x="35" y="35" width="7" height="7" fill="#39ff14"/><rect x="42" y="35" width="7" height="7" fill="#7f8cff"/><rect x="49" y="35" width="7" height="7" fill="#7f8cff"/><rect x="56" y="35" width="7" height="7" fill="#7f8cff"/><rect x="63" y="35" width="7" height="7" fill="#7f8cff"/><rect x="70" y="35" width="7" height="7" fill="#7f8cff"/><rect x="77" y="35" width="7" height="7" fill="#7f8cff"/><rect x="84" y="35" width="7" height="7" fill="#7f8cff"/><rect x="91" y="35" width="7" height="7" fill="#7f8cff"/><rect x="98" y="35" width="7" height="7" fill="#7f8cff"/><rect x="105" y="35" width="7" height="7" fill="#7f8cff"/><rect x="112" y="35" width="7" height="7" fill="#39ff14"/><rect x="119" y="35" width="7" height="7" fill="#7f8cff"/><rect x="126" y="35" width="7" height="7" fill="#7f8cff"/><rect x="133" y="35" width="7" height="7" fill="#7f8cff"/><rect x="7" y="42" width="7" height="7" fill="#b7bfff"/><rect x="14" y="42" width="7" height="7" fill="#7f8cff"/><rect x="21" y="42" width="7" height="7" fill="#7f8cff"/><rect x="28" y="42" width="7" height="7" fill="#7f8cff"/><rect x="35" y="42" width="7" height="7" fill="#39ff14"/><rect x="42" y="42" width="7" height="7" fill="#7f8cff"/><rect x="49" y="42" width="7" height="7" fill="#7f8cff"/><rect x="56" y="42" width="7" height="7" fill="#7f8cff"/><rect x="63" y="42" width="7" height="7" fill="#7f8cff"/><rect x="70" y="42" width="7" height="7" fill="#7f8cff"/><rect x="77" y="42" width="7" height="7" fill="#7f8cff"/><rect x="84" y="42" width="7" height="7" fill="#7f8cff"/><rect x="91" y="42" width="7" height="7" fill="#7f8cff"/><rect x="98" y="42" width="7" height="7" fill="#7f8cff"/><rect x="105" y="42" width="7" height="7" fill="#7f8cff"/><rect x="112" y="42" width="7" height="7" fill="#39ff14"/><rect x="119" y="42" width="7" height="7" fill="#7f8cff"/><rect x="126" y="42" width="7" height="7" fill="#7f8cff"/><rect x="133" y="42" width="7" height="7" fill="#7f8cff"/><rect x="154" y="42" width="7" height="7" fill="#ff5a36"/><rect x="182" y="42" width="7" height="7" fill="#ff5a36"/><rect x="196" y="42" width="7" height="7" fill="#ff5a36"/><rect x="203" y="42" width="7" height="7" fill="#ff5a36"/><rect x="7" y="49" width="7" height="7" fill="#b7bfff"/><rect x="14" y="49" width="7" height="7" fill="#7f8cff"/><rect x="21" y="49" width="7" height="7" fill="#7f8cff"/><rect x="28" y="49" width="7" height="7" fill="#7f8cff"/><rect x="35" y="49" width="7" height="7" fill="#39ff14"/><rect x="42" y="49" width="7" height="7" fill="#7f8cff"/><rect x="49" y="49" width="7" height="7" fill="#7f8cff"/><rect x="56" y="49" width="7" height="7" fill="#7f8cff"/><rect x="63" y="49" width="7" height="7" fill="#7f8cff"/><rect x="70" y="49" width="7" height="7" fill="#7f8cff"/><rect x="77" y="49" width="7" height="7" fill="#7f8cff"/><rect x="84" y="49" width="7" height="7" fill="#7f8cff"/><rect x="91" y="49" width="7" height="7" fill="#7f8cff"/><rect x="98" y="49" width="7" height="7" fill="#7f8cff"/><rect x="105" y="49" width="7" height="7" fill="#7f8cff"/><rect x="112" y="49" width="7" height="7" fill="#39ff14"/><rect x="119" y="49" width="7" height="7" fill="#7f8cff"/><rect x="126" y="49" width="7" height="7" fill="#7f8cff"/><rect x="133" y="49" width="7" height="7" fill="#7f8cff"/><rect x="154" y="49" width="7" height="7" fill="#ff5a36"/><rect x="182" y="49" width="7" height="7" fill="#ff5a36"/><rect x="196" y="49" width="7" height="7" fill="#ff5a36"/><rect x="203" y="49" width="7" height="7" fill="#ff5a36"/><rect x="210" y="49" width="7" height="7" fill="#ff5a36"/><rect x="0" y="56" width="7" height="7" fill="#b7bfff"/><rect x="7" y="56" width="7" height="7" fill="#7f8cff"/><rect x="14" y="56" width="7" height="7" fill="#7f8cff"/><rect x="21" y="56" width="7" height="7" fill="#7f8cff"/><rect x="28" y="56" width="7" height="7" fill="#39ff14"/><rect x="35" y="56" width="7" height="7" fill="#7f8cff"/><rect x="42" y="56" width="7" height="7" fill="#7f8cff"/><rect x="49" y="56" width="7" height="7" fill="#7f8cff"/><rect x="56" y="56" width="7" height="7" fill="#7f8cff"/><rect x="63" y="56" width="7" height="7" fill="#7f8cff"/><rect x="70" y="56" width="7" height="7" fill="#7f8cff"/><rect x="77" y="56" width="7" height="7" fill="#7f8cff"/><rect x="84" y="56" width="7" height="7" fill="#7f8cff"/><rect x="91" y="56" width="7" height="7" fill="#7f8cff"/><rect x="98" y="56" width="7" height="7" fill="#7f8cff"/><rect x="105" y="56" width="7" height="7" fill="#7f8cff"/><rect x="112" y="56" width="7" height="7" fill="#7f8cff"/><rect x="119" y="56" width="7" height="7" fill="#39ff14"/><rect x="126" y="56" width="7" height="7" fill="#7f8cff"/><rect x="133" y="56" width="7" height="7" fill="#7f8cff"/><rect x="140" y="56" width="7" height="7" fill="#7f8cff"/><rect x="154" y="56" width="7" height="7" fill="#ff5a36"/><rect x="182" y="56" width="7" height="7" fill="#ff5a36"/><rect x="203" y="56" width="7" height="7" fill="#ff5a36"/><rect x="210" y="56" width="7" height="7" fill="#ff5a36"/><rect x="0" y="63" width="7" height="7" fill="#b7bfff"/><rect x="7" y="63" width="7" height="7" fill="#7f8cff"/><rect x="14" y="63" width="7" height="7" fill="#7f8cff"/><rect x="21" y="63" width="7" height="7" fill="#7f8cff"/><rect x="28" y="63" width="7" height="7" fill="#7f8cff"/><rect x="35" y="63" width="7" height="7" fill="#39ff14"/><rect x="42" y="63" width="7" height="7" fill="#7f8cff"/><rect x="49" y="63" width="7" height="7" fill="#7f8cff"/><rect x="56" y="63" width="7" height="7" fill="#7f8cff"/><rect x="63" y="63" width="7" height="7" fill="#7f8cff"/><rect x="70" y="63" width="7" height="7" fill="#7f8cff"/><rect x="77" y="63" width="7" height="7" fill="#7f8cff"/><rect x="84" y="63" width="7" height="7" fill="#7f8cff"/><rect x="91" y="63" width="7" height="7" fill="#7f8cff"/><rect x="98" y="63" width="7" height="7" fill="#7f8cff"/><rect x="105" y="63" width="7" height="7" fill="#7f8cff"/><rect x="112" y="63" width="7" height="7" fill="#39ff14"/><rect x="119" y="63" width="7" height="7" fill="#7f8cff"/><rect x="126" y="63" width="7" height="7" fill="#7f8cff"/><rect x="133" y="63" width="7" height="7" fill="#7f8cff"/><rect x="140" y="63" width="7" height="7" fill="#ff5a36"/><rect x="147" y="63" width="7" height="7" fill="#ff5a36"/><rect x="154" y="63" width="7" height="7" fill="#ff5a36"/><rect x="161" y="63" width="7" height="7" fill="#ff5a36"/><rect x="168" y="63" width="7" height="7" fill="#ff5a36"/><rect x="175" y="63" width="7" height="7" fill="#ff5a36"/><rect x="182" y="63" width="7" height="7" fill="#ff5a36"/><rect x="189" y="63" width="7" height="7" fill="#ff5a36"/><rect x="203" y="63" width="7" height="7" fill="#ff5a36"/><rect x="0" y="70" width="7" height="7" fill="#7f8cff"/><rect x="7" y="70" width="7" height="7" fill="#7f8cff"/><rect x="14" y="70" width="7" height="7" fill="#7f8cff"/><rect x="21" y="70" width="7" height="7" fill="#7f8cff"/><rect x="28" y="70" width="7" height="7" fill="#7f8cff"/><rect x="35" y="70" width="7" height="7" fill="#39ff14"/><rect x="42" y="70" width="7" height="7" fill="#7f8cff"/><rect x="49" y="70" width="7" height="7" fill="#7f8cff"/><rect x="56" y="70" width="7" height="7" fill="#7f8cff"/><rect x="77" y="70" width="7" height="7" fill="#7f8cff"/><rect x="84" y="70" width="7" height="7" fill="#7f8cff"/><rect x="91" y="70" width="7" height="7" fill="#7f8cff"/><rect x="98" y="70" width="7" height="7" fill="#7f8cff"/><rect x="105" y="70" width="7" height="7" fill="#7f8cff"/><rect x="112" y="70" width="7" height="7" fill="#39ff14"/><rect x="119" y="70" width="7" height="7" fill="#7f8cff"/><rect x="126" y="70" width="7" height="7" fill="#7f8cff"/><rect x="133" y="70" width="7" height="7" fill="#ff5a36"/><rect x="140" y="70" width="7" height="7" fill="#ff5a36"/><rect x="147" y="70" width="7" height="7" fill="#ff9a6e"/><rect x="154" y="70" width="7" height="7" fill="#ff9a6e"/><rect x="161" y="70" width="7" height="7" fill="#ff5a36"/><rect x="168" y="70" width="7" height="7" fill="#ff5a36"/><rect x="175" y="70" width="7" height="7" fill="#ff5a36"/><rect x="182" y="70" width="7" height="7" fill="#ff5a36"/><rect x="189" y="70" width="7" height="7" fill="#ff5a36"/><rect x="196" y="70" width="7" height="7" fill="#ff5a36"/><rect x="203" y="70" width="7" height="7" fill="#ff5a36"/><rect x="0" y="77" width="7" height="7" fill="#7f8cff"/><rect x="7" y="77" width="7" height="7" fill="#7f8cff"/><rect x="14" y="77" width="7" height="7" fill="#7f8cff"/><rect x="21" y="77" width="7" height="7" fill="#7f8cff"/><rect x="28" y="77" width="7" height="7" fill="#7f8cff"/><rect x="35" y="77" width="7" height="7" fill="#39ff14"/><rect x="42" y="77" width="7" height="7" fill="#7f8cff"/><rect x="49" y="77" width="7" height="7" fill="#7f8cff"/><rect x="56" y="77" width="7" height="7" fill="#7f8cff"/><rect x="77" y="77" width="7" height="7" fill="#7f8cff"/><rect x="84" y="77" width="7" height="7" fill="#7f8cff"/><rect x="91" y="77" width="7" height="7" fill="#7f8cff"/><rect x="98" y="77" width="7" height="7" fill="#7f8cff"/><rect x="105" y="77" width="7" height="7" fill="#7f8cff"/><rect x="112" y="77" width="7" height="7" fill="#39ff14"/><rect x="119" y="77" width="7" height="7" fill="#7f8cff"/><rect x="126" y="77" width="7" height="7" fill="#7f8cff"/><rect x="133" y="77" width="7" height="7" fill="#ff5a36"/><rect x="140" y="77" width="7" height="7" fill="#ff5a36"/><rect x="147" y="77" width="7" height="7" fill="#ff5a36"/><rect x="154" y="77" width="7" height="7" fill="#ff5a36"/><rect x="161" y="77" width="7" height="7" fill="#ff5a36"/><rect x="168" y="77" width="7" height="7" fill="#ff5a36"/><rect x="175" y="77" width="7" height="7" fill="#ff5a36"/><rect x="182" y="77" width="7" height="7" fill="#ff5a36"/><rect x="189" y="77" width="7" height="7" fill="#ff5a36"/><rect x="196" y="77" width="7" height="7" fill="#ff5a36"/><rect x="0" y="84" width="7" height="7" fill="#4a52b8"/><rect x="7" y="84" width="7" height="7" fill="#7f8cff"/><rect x="14" y="84" width="7" height="7" fill="#7f8cff"/><rect x="21" y="84" width="7" height="7" fill="#7f8cff"/><rect x="28" y="84" width="7" height="7" fill="#7f8cff"/><rect x="35" y="84" width="7" height="7" fill="#7f8cff"/><rect x="42" y="84" width="7" height="7" fill="#39ff14"/><rect x="49" y="84" width="7" height="7" fill="#39ff14"/><rect x="56" y="84" width="7" height="7" fill="#7f8cff"/><rect x="63" y="84" width="7" height="7" fill="#7f8cff"/><rect x="70" y="84" width="7" height="7" fill="#7f8cff"/><rect x="77" y="84" width="7" height="7" fill="#7f8cff"/><rect x="84" y="84" width="7" height="7" fill="#7f8cff"/><rect x="91" y="84" width="7" height="7" fill="#7f8cff"/><rect x="98" y="84" width="7" height="7" fill="#39ff14"/><rect x="105" y="84" width="7" height="7" fill="#39ff14"/><rect x="112" y="84" width="7" height="7" fill="#7f8cff"/><rect x="119" y="84" width="7" height="7" fill="#7f8cff"/><rect x="126" y="84" width="7" height="7" fill="#4a52b8"/><rect x="133" y="84" width="7" height="7" fill="#ff5a36"/><rect x="140" y="84" width="7" height="7" fill="#ff5a36"/><rect x="147" y="84" width="7" height="7" fill="#ff5a36"/><rect x="154" y="84" width="7" height="7" fill="#ff5a36"/><rect x="161" y="84" width="7" height="7" fill="#ff5a36"/><rect x="168" y="84" width="7" height="7" fill="#ff5a36"/><rect x="175" y="84" width="7" height="7" fill="#ff5a36"/><rect x="182" y="84" width="7" height="7" fill="#ff5a36"/><rect x="189" y="84" width="7" height="7" fill="#ff5a36"/><rect x="7" y="91" width="7" height="7" fill="#4a52b8"/><rect x="14" y="91" width="7" height="7" fill="#4a52b8"/><rect x="21" y="91" width="7" height="7" fill="#7f8cff"/><rect x="28" y="91" width="7" height="7" fill="#7f8cff"/><rect x="35" y="91" width="7" height="7" fill="#7f8cff"/><rect x="42" y="91" width="7" height="7" fill="#7f8cff"/><rect x="49" y="91" width="7" height="7" fill="#7f8cff"/><rect x="56" y="91" width="7" height="7" fill="#7f8cff"/><rect x="63" y="91" width="7" height="7" fill="#7f8cff"/><rect x="70" y="91" width="7" height="7" fill="#7f8cff"/><rect x="77" y="91" width="7" height="7" fill="#7f8cff"/><rect x="84" y="91" width="7" height="7" fill="#7f8cff"/><rect x="91" y="91" width="7" height="7" fill="#7f8cff"/><rect x="98" y="91" width="7" height="7" fill="#7f8cff"/><rect x="105" y="91" width="7" height="7" fill="#7f8cff"/><rect x="112" y="91" width="7" height="7" fill="#7f8cff"/><rect x="119" y="91" width="7" height="7" fill="#4a52b8"/><rect x="126" y="91" width="7" height="7" fill="#4a52b8"/><rect x="133" y="91" width="7" height="7" fill="#b8321b"/><rect x="140" y="91" width="7" height="7" fill="#b8321b"/><rect x="147" y="91" width="7" height="7" fill="#b8321b"/><rect x="154" y="91" width="7" height="7" fill="#b8321b"/><rect x="161" y="91" width="7" height="7" fill="#b8321b"/><rect x="168" y="91" width="7" height="7" fill="#b8321b"/><rect x="175" y="91" width="7" height="7" fill="#b8321b"/><rect x="182" y="91" width="7" height="7" fill="#b8321b"/><rect x="14" y="98" width="7" height="7" fill="#4a52b8"/><rect x="21" y="98" width="7" height="7" fill="#4a52b8"/><rect x="28" y="98" width="7" height="7" fill="#4a52b8"/><rect x="35" y="98" width="7" height="7" fill="#4a52b8"/><rect x="42" y="98" width="7" height="7" fill="#4a52b8"/><rect x="49" y="98" width="7" height="7" fill="#4a52b8"/><rect x="56" y="98" width="7" height="7" fill="#4a52b8"/><rect x="63" y="98" width="7" height="7" fill="#4a52b8"/><rect x="70" y="98" width="7" height="7" fill="#4a52b8"/><rect x="77" y="98" width="7" height="7" fill="#4a52b8"/><rect x="84" y="98" width="7" height="7" fill="#4a52b8"/><rect x="91" y="98" width="7" height="7" fill="#4a52b8"/><rect x="98" y="98" width="7" height="7" fill="#4a52b8"/><rect x="105" y="98" width="7" height="7" fill="#4a52b8"/><rect x="112" y="98" width="7" height="7" fill="#4a52b8"/><rect x="133" y="98" width="7" height="7" fill="#ff5a36"/><rect x="154" y="98" width="7" height="7" fill="#ff5a36"/><rect x="175" y="98" width="7" height="7" fill="#ff5a36"/><rect x="196" y="98" width="7" height="7" fill="#ff5a36"/><rect x="28" y="105" width="7" height="7" fill="#4a52b8"/><rect x="35" y="105" width="7" height="7" fill="#4a52b8"/><rect x="42" y="105" width="7" height="7" fill="#4a52b8"/><rect x="49" y="105" width="7" height="7" fill="#4a52b8"/><rect x="56" y="105" width="7" height="7" fill="#4a52b8"/><rect x="63" y="105" width="7" height="7" fill="#4a52b8"/><rect x="70" y="105" width="7" height="7" fill="#4a52b8"/><rect x="77" y="105" width="7" height="7" fill="#4a52b8"/><rect x="84" y="105" width="7" height="7" fill="#4a52b8"/><rect x="91" y="105" width="7" height="7" fill="#4a52b8"/><rect x="98" y="105" width="7" height="7" fill="#4a52b8"/><rect x="126" y="105" width="7" height="7" fill="#ff5a36"/><rect x="147" y="105" width="7" height="7" fill="#ff5a36"/><rect x="182" y="105" width="7" height="7" fill="#ff5a36"/><rect x="203" y="105" width="7" height="7" fill="#ff5a36"/><rect x="119" y="112" width="7" height="7" fill="#ff5a36"/><rect x="140" y="112" width="7" height="7" fill="#ff5a36"/><rect x="189" y="112" width="7" height="7" fill="#ff5a36"/><rect x="210" y="112" width="7" height="7" fill="#ff5a36"/><g class="eye-open"><rect x="161" y="28" width="7" height="7" fill="#ffffff"/><rect x="182" y="35" width="7" height="7" fill="#ffffff"/><rect x="189" y="35" width="7" height="7" fill="#ffffff"/><rect x="175" y="21" width="7" height="7" fill="#ffffff"/><rect x="154" y="35" width="7" height="7" fill="#ffffff"/><rect x="182" y="28" width="7" height="7" fill="#0b0f0c"/><rect x="147" y="21" width="7" height="7" fill="#ffffff"/><rect x="189" y="28" width="7" height="7" fill="#ffffff"/><rect x="154" y="28" width="7" height="7" fill="#0b0f0c"/><rect x="161" y="21" width="7" height="7" fill="#ffffff"/><rect x="175" y="35" width="7" height="7" fill="#ffffff"/><rect x="147" y="35" width="7" height="7" fill="#ffffff"/><rect x="182" y="21" width="7" height="7" fill="#ffffff"/><rect x="161" y="35" width="7" height="7" fill="#ffffff"/><rect x="189" y="21" width="7" height="7" fill="#ffffff"/><rect x="154" y="21" width="7" height="7" fill="#ffffff"/><rect x="147" y="28" width="7" height="7" fill="#ffffff"/><rect x="175" y="28" width="7" height="7" fill="#ffffff"/></g><g class="eye-closed"><rect x="161" y="28" width="7" height="7" fill="#ffffff"/><rect x="182" y="28" width="7" height="7" fill="#ffffff"/><rect x="189" y="28" width="7" height="7" fill="#ffffff"/><rect x="154" y="28" width="7" height="7" fill="#ffffff"/><rect x="147" y="28" width="7" height="7" fill="#ffffff"/><rect x="175" y="28" width="7" height="7" fill="#ffffff"/></g><g class="claw-open"><rect x="217" y="35" width="7" height="7" fill="#ff5a36"/><rect x="217" y="49" width="7" height="7" fill="#ff5a36"/><rect x="217" y="42" width="7" height="7" fill="#ff5a36"/><rect x="196" y="35" width="7" height="7" fill="#ff5a36"/></g><g class="claw-closed"><rect x="217" y="49" width="7" height="7" fill="#ff5a36"/><rect x="210" y="35" width="7" height="7" fill="#ff5a36"/><rect x="203" y="35" width="7" height="7" fill="#ff5a36"/></g><g class="cursor"><rect x="63" y="70" width="7" height="7" fill="#39ff14"/><rect x="63" y="77" width="7" height="7" fill="#39ff14"/><rect x="70" y="77" width="7" height="7" fill="#39ff14"/><rect x="70" y="70" width="7" height="7" fill="#39ff14"/></g><g class="cursor-off"><rect x="63" y="70" width="7" height="7" fill="#7f8cff"/><rect x="63" y="77" width="7" height="7" fill="#7f8cff"/><rect x="70" y="77" width="7" height="7" fill="#7f8cff"/><rect x="70" y="70" width="7" height="7" fill="#7f8cff"/></g></g>
  </g>
  <g transform="translate(330 40)" shape-rendering="crispEdges" filter="url(#glow)"><g fill="url(#word)"><rect x="24" y="0" width="8" height="8"/><rect x="16" y="16" width="8" height="8"/><rect x="24" y="16" width="8" height="8"/><rect x="24" y="24" width="8" height="8"/><rect x="24" y="32" width="8" height="8"/><rect x="24" y="40" width="8" height="8"/><rect x="24" y="48" width="8" height="8"/><rect x="0" y="56" width="8" height="8"/><rect x="24" y="56" width="8" height="8"/><rect x="8" y="64" width="8" height="8"/><rect x="16" y="64" width="8" height="8"/><rect x="56" y="16" width="8" height="8"/><rect x="64" y="16" width="8" height="8"/><rect x="72" y="16" width="8" height="8"/><rect x="80" y="16" width="8" height="8"/><rect x="48" y="24" width="8" height="8"/><rect x="56" y="32" width="8" height="8"/><rect x="64" y="32" width="8" height="8"/><rect x="72" y="32" width="8" height="8"/><rect x="80" y="40" width="8" height="8"/><rect x="48" y="48" width="8" height="8"/><rect x="56" y="48" width="8" height="8"/><rect x="64" y="48" width="8" height="8"/><rect x="72" y="48" width="8" height="8"/><rect x="96" y="16" width="8" height="8"/><rect x="112" y="16" width="8" height="8"/><rect x="120" y="16" width="8" height="8"/><rect x="96" y="24" width="8" height="8"/><rect x="104" y="24" width="8" height="8"/><rect x="128" y="24" width="8" height="8"/><rect x="96" y="32" width="8" height="8"/><rect x="96" y="40" width="8" height="8"/><rect x="96" y="48" width="8" height="8"/><rect x="152" y="16" width="8" height="8"/><rect x="160" y="16" width="8" height="8"/><rect x="168" y="16" width="8" height="8"/><rect x="144" y="24" width="8" height="8"/><rect x="176" y="24" width="8" height="8"/><rect x="144" y="32" width="8" height="8"/><rect x="152" y="32" width="8" height="8"/><rect x="160" y="32" width="8" height="8"/><rect x="168" y="32" width="8" height="8"/><rect x="176" y="32" width="8" height="8"/><rect x="144" y="40" width="8" height="8"/><rect x="152" y="48" width="8" height="8"/><rect x="160" y="48" width="8" height="8"/><rect x="168" y="48" width="8" height="8"/><rect x="200" y="16" width="8" height="8"/><rect x="208" y="16" width="8" height="8"/><rect x="216" y="16" width="8" height="8"/><rect x="192" y="24" width="8" height="8"/><rect x="224" y="24" width="8" height="8"/><rect x="192" y="32" width="8" height="8"/><rect x="192" y="40" width="8" height="8"/><rect x="224" y="40" width="8" height="8"/><rect x="200" y="48" width="8" height="8"/><rect x="208" y="48" width="8" height="8"/><rect x="216" y="48" width="8" height="8"/><rect x="248" y="16" width="8" height="8"/><rect x="256" y="16" width="8" height="8"/><rect x="264" y="16" width="8" height="8"/><rect x="240" y="24" width="8" height="8"/><rect x="272" y="24" width="8" height="8"/><rect x="240" y="32" width="8" height="8"/><rect x="272" y="32" width="8" height="8"/><rect x="240" y="40" width="8" height="8"/><rect x="272" y="40" width="8" height="8"/><rect x="248" y="48" width="8" height="8"/><rect x="256" y="48" width="8" height="8"/><rect x="264" y="48" width="8" height="8"/><rect x="288" y="16" width="8" height="8"/><rect x="296" y="16" width="8" height="8"/><rect x="304" y="16" width="8" height="8"/><rect x="312" y="16" width="8" height="8"/><rect x="288" y="24" width="8" height="8"/><rect x="320" y="24" width="8" height="8"/><rect x="288" y="32" width="8" height="8"/><rect x="320" y="32" width="8" height="8"/><rect x="288" y="40" width="8" height="8"/><rect x="320" y="40" width="8" height="8"/><rect x="288" y="48" width="8" height="8"/><rect x="320" y="48" width="8" height="8"/></g></g>
  <g font-family="ui-monospace, 'JetBrains Mono', 'Fira Code', Consolas, monospace">
    <text x="330" y="142" font-size="21" fill="#00e5ff">map a web app's JavaScript to its API</text>
    <text x="330" y="170" font-size="14" fill="#6f7f6f">source maps · tree-sitter · endpoints · graphql · openapi</text>
  </g>
</svg>
